<svg version="1.1" id="US_UK_Download_on_the" xmlns="http://www.w3.org/2000/svg" xmlns:xlink="http://www.w3.org/1999/xlink" x="0px" y="0px" width="48px" height="14.222px" viewBox="0 0 48 14.222" enable-background="new 0 0 135 40" xml:space="preserve"><g><path fill="#A6A6A6" d="M46.292 14.222H1.681A1.685 1.685 0 0 1 0 12.539V1.68A1.683 1.683 0 0 1 1.681 0h44.611C47.219 0 48 0.754 48 1.68v10.859c0 0.926 -0.781 1.683 -1.708 1.683"/><path d="M47.656 12.54a1.362 1.362 0 0 1 -1.363 1.362H1.681a1.364 1.364 0 0 1 -1.365 -1.362V1.68A1.365 1.365 0 0 1 1.681 0.316h44.611a1.363 1.363 0 0 1 1.363 1.364z"/><g><g><path fill="#FFFFFF" d="M10.712 7.034c-0.01 -1.146 0.938 -1.703 0.982 -1.729 -0.537 -0.783 -1.37 -0.89 -1.663 -0.899 -0.699 -0.074 -1.378 0.418 -1.734 0.418 -0.363 0 -0.912 -0.411 -1.503 -0.399 -0.761 0.012 -1.473 0.452 -1.863 1.136 -0.806 1.395 -0.205 3.445 0.567 4.572 0.386 0.552 0.837 1.169 1.428 1.147 0.578 -0.024 0.794 -0.368 1.491 -0.368 0.691 0 0.894 0.368 1.496 0.354 0.62 -0.01 1.01 -0.555 1.383 -1.112 0.446 -0.633 0.625 -1.256 0.633 -1.288 -0.015 -0.005 -1.204 -0.459 -1.216 -1.833"/><path fill="#FFFFFF" d="M9.574 3.664c0.311 -0.389 0.523 -0.917 0.464 -1.454 -0.45 0.02 -1.012 0.311 -1.336 0.691 -0.287 0.335 -0.543 0.884 -0.476 1.4 0.505 0.038 1.024 -0.255 1.348 -0.638"/></g></g><g><path fill="#FFFFFF" d="M19.074 11.201h-0.807l-0.442 -1.39h-1.537l-0.421 1.39H15.079l1.523 -4.732h0.941zm-1.383 -1.973L17.291 7.993q-0.063 -0.19 -0.239 -0.891h-0.014a34.489 34.489 0 0 1 -0.225 0.891l-0.393 1.236z"/><path fill="#FFFFFF" d="M22.991 9.454q0 0.87 -0.47 1.376 -0.421 0.449 -1.046 0.449 -0.674 0 -0.969 -0.484h-0.014v1.797H19.733V8.913q0 -0.547 -0.028 -1.123h0.667l0.042 0.541h0.014q0.379 -0.611 1.151 -0.611 0.604 0 1.007 0.477 0.404 0.478 0.404 1.257m-0.772 0.028q0 -0.498 -0.225 -0.821 -0.246 -0.337 -0.66 -0.337 -0.281 0 -0.509 0.186 -0.228 0.186 -0.298 0.488 -0.035 0.14 -0.035 0.231v0.569q0 0.372 0.228 0.629c0.228 0.256 0.35 0.256 0.593 0.256q0.428 0 0.667 -0.33 0.239 -0.33 0.239 -0.871"/><path fill="#FFFFFF" d="M26.915 9.454q0 0.87 -0.471 1.376 -0.421 0.449 -1.046 0.449 -0.674 0 -0.969 -0.484h-0.014v1.797h-0.758V8.913q0 -0.547 -0.028 -1.123h0.667l0.042 0.541h0.014q0.379 -0.611 1.151 -0.611 0.603 0 1.008 0.477 0.403 0.478 0.403 1.257m-0.772 0.028q0 -0.498 -0.225 -0.821 -0.245 -0.337 -0.66 -0.337a0.789 0.789 0 0 0 -0.509 0.186q-0.228 0.186 -0.298 0.488 -0.035 0.14 -0.035 0.231v0.569q0 0.372 0.228 0.629 0.228 0.256 0.594 0.256 0.428 0 0.667 -0.33 0.239 -0.33 0.239 -0.871"/><path fill="#FFFFFF" d="M31.303 9.874q0 0.604 -0.42 0.983 -0.462 0.414 -1.289 0.414 -0.763 0 -1.226 -0.295l0.176 -0.632q0.499 0.302 1.096 0.302 0.428 0 0.667 -0.193 0.238 -0.193 0.238 -0.517 0 -0.288 -0.197 -0.485 -0.196 -0.197 -0.653 -0.366 -1.243 -0.464 -1.242 -1.357 0 -0.584 0.436 -0.956 0.434 -0.373 1.158 -0.373 0.646 0 1.074 0.225l-0.19 0.618q-0.4 -0.218 -0.906 -0.218 -0.4 0 -0.624 0.197a0.562 0.562 0 0 0 -0.19 0.428q0 0.281 0.217 0.463 0.189 0.169 0.688 0.365 0.61 0.246 0.898 0.575 0.287 0.329 0.287 0.82"/><path fill="#FFFFFF" d="M33.809 8.358h-0.836v1.657q0 0.632 0.442 0.632 0.203 0 0.337 -0.035l0.021 0.576q-0.224 0.084 -0.59 0.084 -0.449 0 -0.702 -0.274 -0.252 -0.274 -0.253 -0.92v-1.72h-0.498v-0.569h0.498v-0.625l0.745 -0.225v0.849h0.836z"/><path fill="#FFFFFF" d="M37.579 9.467q0 0.787 -0.449 1.292 -0.471 0.52 -1.25 0.519 -0.751 0 -1.196 -0.498c-0.446 -0.498 -0.446 -0.751 -0.446 -1.257q0 -0.793 0.46 -1.298t1.239 -0.506q0.751 0 1.207 0.498 0.436 0.484 0.436 1.249m-0.786 0.025q0 -0.472 -0.203 -0.81 -0.239 -0.408 -0.681 -0.408 -0.457 0 -0.695 0.408 -0.204 0.338 -0.203 0.824 0 0.472 0.203 0.809 0.245 0.409 0.688 0.408 0.434 0 0.681 -0.415 0.21 -0.345 0.21 -0.816"/><path fill="#FFFFFF" d="M40.043 8.456a1.316 1.316 0 0 0 -0.239 -0.021q-0.4 0 -0.618 0.302 -0.19 0.267 -0.19 0.674v1.79h-0.758l0.007 -2.337q0 -0.59 -0.028 -1.074h0.66l0.028 0.653h0.021q0.12 -0.337 0.379 -0.54a0.917 0.917 0 0 1 0.548 -0.183q0.105 0 0.19 0.014z"/><path fill="#FFFFFF" d="M43.433 9.334a1.778 1.778 0 0 1 -0.028 0.344h-2.274q0.013 0.506 0.33 0.773 0.287 0.238 0.744 0.239 0.506 0 0.92 -0.161l0.119 0.526q-0.484 0.211 -1.144 0.211 -0.793 0 -1.247 -0.467 -0.452 -0.467 -0.453 -1.253 0 -0.772 0.422 -1.285 0.442 -0.547 1.193 -0.547 0.738 0 1.117 0.547 0.3 0.435 0.301 1.074m-0.723 -0.197q0.007 -0.337 -0.147 -0.583 -0.197 -0.316 -0.604 -0.316 -0.372 0 -0.603 0.309 -0.19 0.246 -0.224 0.59z"/></g><g><g><path fill="#FFFFFF" d="M17.44 3.559q0 0.628 -0.376 0.945 -0.348 0.293 -0.99 0.293 -0.318 0 -0.545 -0.028V2.482q0.297 -0.048 0.642 -0.048 0.61 0 0.921 0.266 0.348 0.3 0.348 0.859m-0.393 0.01q0 -0.407 -0.215 -0.624 -0.215 -0.217 -0.63 -0.217 -0.176 0 -0.3 0.024v1.738q0.069 0.011 0.252 0.01 0.428 0 0.66 -0.238c0.233 -0.238 0.233 -0.39 0.233 -0.693"/><path fill="#FFFFFF" d="M19.523 3.924q0 0.386 -0.221 0.635 -0.231 0.255 -0.614 0.255 -0.369 0 -0.588 -0.245t-0.219 -0.617q0 -0.39 0.226 -0.638c0.226 -0.248 0.353 -0.248 0.609 -0.248q0.369 0 0.593 0.245 0.213 0.238 0.214 0.614m-0.386 0.012q0 -0.232 -0.1 -0.398 -0.117 -0.201 -0.334 -0.201 -0.224 0 -0.342 0.201 -0.1 0.166 -0.1 0.405 0 0.232 0.1 0.398 0.121 0.201 0.338 0.201 0.213 0 0.334 -0.204 0.103 -0.169 0.103 -0.401"/><path fill="#FFFFFF" d="m22.316 3.1 -0.524 1.676h-0.341l-0.217 -0.728a5.333 5.333 0 0 1 -0.135 -0.542h-0.007a3.911 3.911 0 0 1 -0.135 0.542l-0.231 0.728h-0.345l-0.493 -1.676h0.383l0.19 0.797q0.069 0.283 0.114 0.538h0.007q0.041 -0.21 0.138 -0.534l0.238 -0.8h0.304l0.228 0.783q0.082 0.286 0.134 0.552h0.01q0.038 -0.258 0.114 -0.552l0.203 -0.783z"/><path fill="#FFFFFF" d="M24.248 4.776H23.876v-0.96q0 -0.444 -0.338 -0.444a0.338 0.338 0 0 0 -0.269 0.122 0.434 0.434 0 0 0 -0.103 0.287v0.994h-0.373v-1.197q0 -0.22 -0.014 -0.48h0.327l0.017 0.262h0.01q0.065 -0.122 0.193 -0.202 0.152 -0.094 0.338 -0.094 0.235 0 0.39 0.152 0.193 0.186 0.193 0.555z"/><path fill="#FFFFFF" d="M25.276 4.776h-0.372V2.331h0.372z"/><path fill="#FFFFFF" d="M27.47 3.924q0 0.386 -0.221 0.635 -0.231 0.255 -0.614 0.255 -0.37 0 -0.588 -0.245 -0.219 -0.245 -0.219 -0.617 0 -0.39 0.226 -0.638c0.226 -0.248 0.353 -0.248 0.608 -0.248q0.369 0 0.594 0.245 0.213 0.238 0.214 0.614m-0.387 0.012q0 -0.232 -0.1 -0.398 -0.117 -0.201 -0.334 -0.201 -0.225 0 -0.342 0.201 -0.1 0.166 -0.1 0.405 0 0.232 0.1 0.398 0.121 0.201 0.338 0.201 0.213 0 0.334 -0.204 0.104 -0.169 0.103 -0.401"/><path fill="#FFFFFF" d="M29.273 4.776h-0.335l-0.028 -0.193h-0.01q-0.172 0.231 -0.49 0.231 -0.238 0 -0.383 -0.152a0.476 0.476 0 0 1 -0.131 -0.341q0 -0.307 0.257 -0.469 0.257 -0.162 0.723 -0.159V3.662q0 -0.331 -0.348 -0.331 -0.248 0 -0.437 0.124l-0.076 -0.245q0.234 -0.145 0.575 -0.145 0.657 0 0.658 0.693v0.617q0 0.251 0.024 0.4m-0.387 -0.576v-0.258q-0.617 -0.011 -0.617 0.338 0 0.131 0.071 0.197a0.26 0.26 0 0 0 0.182 0.065q0.123 0 0.228 -0.078a0.32 0.32 0 0 0 0.135 -0.264"/><path fill="#FFFFFF" d="M31.39 4.776h-0.331l-0.017 -0.269h-0.01q-0.159 0.307 -0.538 0.307 -0.303 0 -0.503 -0.238c-0.2 -0.238 -0.2 -0.364 -0.2 -0.617q0 -0.407 0.217 -0.659 0.21 -0.235 0.517 -0.235 0.338 0 0.472 0.228h0.007V2.331h0.373v1.994q0 0.245 0.013 0.452m-0.386 -0.707v-0.279q0 -0.073 -0.01 -0.117a0.427 0.427 0 0 0 -0.135 -0.226 0.366 0.366 0 0 0 -0.249 -0.091q-0.208 0 -0.328 0.166 -0.119 0.166 -0.119 0.424 0 0.249 0.114 0.404 0.121 0.165 0.326 0.165 0.183 0 0.294 -0.138 0.107 -0.128 0.107 -0.307"/><path fill="#FFFFFF" d="M34.577 3.924q0 0.386 -0.221 0.635 -0.231 0.255 -0.614 0.255 -0.368 0 -0.588 -0.245 -0.219 -0.245 -0.219 -0.617 0 -0.39 0.226 -0.638c0.226 -0.248 0.353 -0.248 0.609 -0.248q0.369 0 0.593 0.245 0.213 0.238 0.214 0.614m-0.386 0.012q0 -0.232 -0.1 -0.398 -0.117 -0.201 -0.335 -0.201 -0.224 0 -0.342 0.201 -0.1 0.166 -0.1 0.405 0 0.232 0.1 0.398 0.121 0.201 0.338 0.201 0.214 0 0.335 -0.204 0.103 -0.169 0.103 -0.401"/><path fill="#FFFFFF" d="M36.581 4.776h-0.372v-0.96q0 -0.444 -0.338 -0.444 -0.166 0 -0.269 0.122c-0.103 0.122 -0.103 0.177 -0.103 0.287v0.994h-0.373v-1.197q0 -0.22 -0.013 -0.48h0.327l0.017 0.262h0.01a0.544 0.544 0 0 1 0.193 -0.202q0.152 -0.094 0.338 -0.094 0.234 0 0.39 0.152 0.193 0.186 0.193 0.555z"/><path fill="#FFFFFF" d="M39.088 3.379h-0.41v0.814q0 0.31 0.217 0.31 0.1 0 0.166 -0.017l0.01 0.283q-0.111 0.042 -0.289 0.042 -0.22 0 -0.345 -0.134 -0.124 -0.134 -0.124 -0.452V3.379h-0.245v-0.279h0.245v-0.307l0.365 -0.11v0.417h0.41z"/><path fill="#FFFFFF" d="M41.061 4.776h-0.373v-0.953q0 -0.451 -0.337 -0.451 -0.259 0 -0.356 0.261a0.462 0.462 0 0 0 -0.017 0.134v1.008h-0.372V2.331h0.372v1.01h0.007q0.176 -0.276 0.503 -0.276 0.231 0 0.383 0.152 0.19 0.19 0.19 0.562z"/><path fill="#FFFFFF" d="M43.096 3.859q0 0.1 -0.014 0.169h-1.118q0.007 0.248 0.162 0.379 0.142 0.117 0.366 0.117 0.248 0 0.452 -0.079l0.058 0.259q-0.238 0.103 -0.562 0.103 -0.39 0 -0.612 -0.229 -0.223 -0.229 -0.222 -0.615 0 -0.379 0.207 -0.631 0.217 -0.269 0.586 -0.269 0.362 0 0.548 0.269 0.149 0.213 0.149 0.527m-0.356 -0.096a0.498 0.498 0 0 0 -0.072 -0.286q-0.097 -0.155 -0.297 -0.155a0.356 0.356 0 0 0 -0.297 0.152 0.569 0.569 0 0 0 -0.111 0.29z"/></g></g></g></svg>