<svg id="svg51" width="48" height="14.222" version="1.1" viewBox="0 0 48 14.222" xml:space="preserve" xmlns="http://www.w3.org/2000/svg" xmlns:cc="http://creativecommons.org/ns#" xmlns:dc="http://purl.org/dc/elements/1.1/" xmlns:rdf="http://www.w3.org/1999/02/22-rdf-syntax-ns#"><metadata id="metadata9"><rdf:RDF><cc:Work rdf:about=""><dc:format>image/svg+xml</dc:format><dc:type rdf:resource="http://purl.org/dc/dcmitype/StillImage"/></cc:Work></rdf:RDF></metadata><path id="path11" d="M46.221 14.222H1.779c-0.978 0 -1.778 -0.8 -1.778 -1.778v-10.667c0 -0.978 0.8 -1.778 1.778 -1.778h44.443c0.978 0 1.778 0.8 1.778 1.778v10.667c0 0.978 -0.8 1.778 -1.778 1.778" fill="#100f0d" stroke-width="0.035554666666666665"/><path id="path13" d="M46.221 0H1.779c-0.978 0 -1.778 0.8 -1.778 1.778v10.666c0 0.978 0.8 1.778 1.778 1.778h44.443c0.978 0 1.778 -0.8 1.778 -1.778v-10.667c0 -0.978 -0.8 -1.778 -1.778 -1.778m0 0.284c0.823 0 1.493 0.67 1.493 1.493v10.667c0 0.823 -0.67 1.493 -1.493 1.493H1.779a1.495 1.495 0 0 1 -1.493 -1.493v-10.667c0 -0.823 0.67 -1.493 1.493 -1.493z" fill="#a2a2a1" stroke-width="0.035554666666666665"/><path id="path35" d="M38.021 10.667h0.663V6.222h-0.663zm5.976 -2.844 -0.761 1.927h-0.023l-0.789 -1.927h-0.715l1.184 2.693 -0.675 1.498h0.692l1.824 -4.192zm-3.763 2.339c-0.217 0 -0.52 -0.109 -0.52 -0.377 0 -0.343 0.377 -0.475 0.703 -0.475 0.291 0 0.429 0.063 0.606 0.149a0.804 0.804 0 0 1 -0.789 0.703zm0.08 -2.436c-0.48 0 -0.978 0.212 -1.183 0.681l0.589 0.246c0.126 -0.246 0.36 -0.326 0.606 -0.326 0.343 0 0.692 0.205 0.698 0.572v0.046c-0.12 -0.069 -0.378 -0.171 -0.692 -0.171 -0.635 0 -1.281 0.349 -1.281 1.001 0 0.595 0.521 0.978 1.104 0.978 0.446 0 0.692 -0.2 0.846 -0.435h0.023v0.343h0.641v-1.704c0 -0.789 -0.59 -1.229 -1.35 -1.229m-4.1 0.638h-0.943v-1.523h0.943c0.496 0 0.778 0.411 0.778 0.762 0 0.345 -0.282 0.762 -0.778 0.762m-0.017 -2.142h-1.59v4.445h0.663v-1.684h0.926c0.735 0 1.458 -0.532 1.458 -1.381s-0.723 -1.381 -1.458 -1.381zM27.529 10.163c-0.458 0 -0.842 -0.384 -0.842 -0.911 0 -0.533 0.384 -0.922 0.842 -0.922 0.453 0 0.808 0.389 0.808 0.922 0 0.527 -0.355 0.911 -0.808 0.911m0.762 -2.091h-0.023c-0.149 -0.178 -0.435 -0.338 -0.796 -0.338 -0.756 0 -1.449 0.665 -1.449 1.518 0 0.848 0.693 1.507 1.449 1.507 0.361 0 0.647 -0.161 0.796 -0.344h0.023v0.218c0 0.579 -0.309 0.888 -0.808 0.888 -0.406 0 -0.659 -0.292 -0.762 -0.538l-0.579 0.241c0.166 0.401 0.607 0.894 1.341 0.894 0.779 0 1.438 -0.458 1.438 -1.575v-2.715h-0.63zm1.089 2.595h0.664V6.221h-0.664zm1.644 -1.466c-0.017 -0.584 0.453 -0.882 0.791 -0.882 0.263 0 0.487 0.132 0.561 0.321zm2.062 -0.504c-0.126 -0.338 -0.51 -0.963 -1.294 -0.963 -0.779 0 -1.427 0.613 -1.427 1.513 0 0.848 0.642 1.512 1.501 1.512 0.693 0 1.094 -0.424 1.261 -0.67l-0.515 -0.344c-0.172 0.252 -0.407 0.418 -0.745 0.418 -0.338 0 -0.578 -0.155 -0.733 -0.459l2.022 -0.836zm-16.109 -0.499v0.642h1.535c-0.046 0.361 -0.166 0.624 -0.349 0.807 -0.223 0.223 -0.573 0.47 -1.186 0.47 -0.945 0 -1.684 -0.762 -1.684 -1.707s0.739 -1.707 1.684 -1.707c0.51 0 0.882 0.201 1.157 0.458l0.453 -0.453c-0.384 -0.367 -0.894 -0.647 -1.61 -0.647 -1.295 0 -2.383 1.054 -2.383 2.349 0 1.294 1.089 2.348 2.383 2.348 0.699 0 1.226 -0.229 1.638 -0.659 0.424 -0.424 0.556 -1.019 0.556 -1.501 0 -0.149 -0.012 -0.286 -0.035 -0.401zm3.939 1.965c-0.458 0 -0.854 -0.378 -0.854 -0.916 0 -0.544 0.395 -0.917 0.853 -0.917s0.854 0.372 0.854 0.917c0 0.538 -0.395 0.916 -0.853 0.916m0 -2.429c-0.837 0 -1.518 0.636 -1.518 1.512 0 0.871 0.682 1.512 1.518 1.512s1.518 -0.641 1.518 -1.512c0 -0.877 -0.682 -1.512 -1.518 -1.512m3.311 2.429c-0.458 0 -0.853 -0.378 -0.853 -0.916 0 -0.544 0.395 -0.917 0.853 -0.917s0.853 0.372 0.853 0.917c0 0.538 -0.395 0.916 -0.853 0.916m0 -2.429c-0.836 0 -1.518 0.636 -1.518 1.512 0 0.871 0.682 1.512 1.518 1.512s1.518 -0.641 1.518 -1.512c0 -0.877 -0.682 -1.512 -1.518 -1.512" fill="#fff" stroke-width="0.035554666666666665"/><path id="path37" d="M7.366 6.906 3.581 10.924l0.001 0.002a1.022 1.022 0 0 0 1.506 0.617l0.012 -0.007 4.261 -2.459z" fill="#eb3131" stroke-width="0.035554666666666665"/><path id="path39" d="m11.195 6.222 -0.004 -0.003 -1.839 -1.066L7.28 6.997l2.08 2.079 1.83 -1.056a1.023 1.023 0 0 0 0.006 -1.799" fill="#f6b60b" stroke-width="0.035554666666666665"/><path id="path41" d="M3.58 3.299q-0.034 0.126 -0.035 0.263V10.661q0 0.137 0.035 0.263l3.916 -3.915z" fill="#5778c5" stroke-width="0.035554666666666665"/><path id="path43" d="m7.394 7.111 1.959 -1.959 -4.256 -2.468a1.025 1.025 0 0 0 -1.517 0.613v0.001z" fill="#3bad49" stroke-width="0.035554666666666665"/><path id="path33" d="M16.851 3.478h-1.037v0.257h0.777c-0.021 0.209 -0.105 0.374 -0.245 0.493 -0.141 0.119 -0.32 0.179 -0.532 0.179q-0.349 0 -0.592 -0.242c-0.158 -0.164 -0.239 -0.368 -0.239 -0.613 0 -0.245 0.081 -0.448 0.239 -0.613q0.243 -0.242 0.592 -0.242c0.119 0 0.233 0.021 0.338 0.066 0.105 0.045 0.188 0.108 0.254 0.188l0.197 -0.197a0.88 0.88 0 0 0 -0.343 -0.236 1.173 1.173 0 0 0 -0.445 -0.084q-0.466 0 -0.789 0.323 -0.323 0.324 -0.323 0.795c0 0.314 0.108 0.58 0.323 0.795q0.323 0.323 0.789 0.323c0.326 0 0.586 -0.105 0.786 -0.317 0.176 -0.177 0.266 -0.415 0.266 -0.714 0 -0.051 -0.006 -0.104 -0.015 -0.161zM17.253 2.482v2.14h1.249v-0.263h-0.974v-0.679h0.879v-0.257H17.528v-0.678h0.974V2.483zm3.001 0.263V2.483H18.784v0.263h0.598v1.877h0.275v-1.877zm1.331 -0.263h-0.275v2.14h0.275zm1.815 0.263V2.483h-1.471v0.263h0.598v1.877h0.275v-1.877zm2.775 0.015c-0.212 -0.219 -0.472 -0.326 -0.783 -0.326s-0.571 0.108 -0.783 0.323c-0.212 0.212 -0.317 0.478 -0.317 0.795s0.104 0.583 0.317 0.795c0.212 0.215 0.472 0.323 0.783 0.323 0.308 0 0.571 -0.108 0.783 -0.323 0.212 -0.212 0.317 -0.478 0.317 -0.795 0 -0.314 -0.104 -0.579 -0.317 -0.791zm-1.369 0.179q0.237 -0.242 0.586 -0.242t0.583 0.242c0.158 0.158 0.236 0.365 0.236 0.613 0 0.249 -0.078 0.454 -0.236 0.613q-0.234 0.242 -0.583 0.242 -0.349 0 -0.586 -0.242c-0.155 -0.162 -0.233 -0.364 -0.233 -0.613 0 -0.248 0.078 -0.451 0.233 -0.613zm2.339 0.35 -0.011 -0.413h0.011l1.088 1.746h0.287V2.482h-0.275v1.252l0.011 0.413h-0.012l-1.04 -1.665h-0.335v2.14h0.275z" fill="#fff" stroke="#fff" stroke-miterlimit="10" stroke-width="0.07110933333333333"/></svg>